<svg display="none" xmlns="http://www.w3.org/2000/svg">
    <symbol id="arrow-dn" viewBox="0 0 15 8">
        <g><g><path d="M4.125 4.651L.75 1.276l.844-.844L7.5 6.34 13.406.362l.844.844-6.75 6.82-.844-.843z"/></g></g>
    </symbol>
    <symbol id="magnifier" viewBox="0 0 20 20">
        <g><g><path  d="M18.949 20.027l-5.767-5.784a6.59 6.59 0 0 1-1.094.798 8.525 8.525 0 0 1-1.243.598 7.125 7.125 0 0 1-1.367.374c-.481.083-.953.125-1.417.125a7.716 7.716 0 0 1-3.157-.648 8.32 8.32 0 0 1-2.56-1.745 8.001 8.001 0 0 1-1.715-2.568 7.912 7.912 0 0 1-.622-3.116 8.041 8.041 0 0 1 2.337-5.734A7.998 7.998 0 0 1 8.06-.016c1.094 0 2.13.208 3.107.623.978.416 1.831.99 2.56 1.72a8.387 8.387 0 0 1 1.74 2.568c.431.98.647 2.036.647 3.166 0 .466-.042.94-.124 1.42-.083.483-.208.94-.373 1.372a8.704 8.704 0 0 1-.597 1.246 6.604 6.604 0 0 1-.795 1.097l5.767 5.784zm-17.55-9.174a7.144 7.144 0 0 0 1.541 2.293 7.386 7.386 0 0 0 2.312 1.57 6.959 6.959 0 0 0 2.81.574c.993 0 1.92-.19 2.783-.573a7.485 7.485 0 0 0 2.287-1.57 7.518 7.518 0 0 0 1.566-2.294c.38-.864.572-1.795.572-2.792 0-.997-.191-1.936-.572-2.817a7.448 7.448 0 0 0-1.566-2.318 7.158 7.158 0 0 0-2.287-1.546A7.06 7.06 0 0 0 8.061.83a7.24 7.24 0 0 0-2.809.549 7.087 7.087 0 0 0-3.853 3.864 7.283 7.283 0 0 0-.547 2.817 7.1 7.1 0 0 0 .547 2.792z"/></g></g>
    </symbol>
    <symbol id="OK" viewBox="0 0 60 61">  
        <path d="M30.000,0.547 C34.124,0.547 38.016,1.320 41.672,2.867 C45.328,4.414 48.514,6.548 51.234,9.265 C53.952,11.986 56.086,15.172 57.633,18.828 C59.180,22.484 59.953,26.376 59.953,30.500 C59.953,34.626 59.180,38.515 57.633,42.172 C56.086,45.828 53.952,49.016 51.234,51.734 C48.514,54.454 45.328,56.586 41.672,58.133 C38.016,59.679 34.124,60.453 30.000,60.453 C25.873,60.453 21.984,59.679 18.328,58.133 C14.672,56.586 11.484,54.454 8.766,51.734 C6.045,49.016 3.914,45.828 2.367,42.172 C0.820,38.515 0.047,34.626 0.047,30.500 C0.047,26.376 0.820,22.484 2.367,18.828 C3.914,15.172 6.045,11.986 8.766,9.265 C11.484,6.548 14.672,4.414 18.328,2.867 C21.984,1.320 25.873,0.547 30.000,0.547 L30.000,0.547 ZM30.000,58.062 C33.843,58.062 37.429,57.337 40.758,55.883 C44.084,54.430 47.016,52.486 49.547,50.047 C51.984,47.516 53.928,44.587 55.383,41.258 C56.835,37.931 57.562,34.345 57.562,30.500 C57.562,26.657 56.835,23.071 55.383,19.742 C53.928,16.415 51.984,13.484 49.547,10.953 C47.016,8.516 44.084,6.572 40.758,5.117 C37.429,3.665 33.843,2.937 30.000,2.937 C26.155,2.937 22.569,3.665 19.242,5.117 C15.913,6.572 12.984,8.516 10.453,10.953 C8.014,13.484 6.070,16.415 4.617,19.742 C3.163,23.071 2.437,26.657 2.437,30.500 C2.437,34.345 3.163,37.931 4.617,41.258 C6.070,44.587 8.014,47.516 10.453,50.047 C12.984,52.486 15.913,54.430 19.242,55.883 C22.569,57.337 26.155,58.062 30.000,58.062 L30.000,58.062 ZM45.047,19.812 C45.328,19.439 45.726,19.250 46.242,19.250 C46.756,19.250 47.202,19.439 47.578,19.812 C47.859,20.188 48.000,20.634 48.000,21.148 C48.000,21.665 47.811,22.062 47.437,22.344 L26.906,42.312 C26.812,42.501 26.647,42.618 26.414,42.664 C26.179,42.712 25.968,42.734 25.781,42.734 C25.500,42.734 25.241,42.712 25.008,42.664 C24.773,42.618 24.608,42.501 24.516,42.312 L16.500,34.297 C16.124,33.923 15.938,33.477 15.938,32.961 C15.938,32.447 16.124,32.047 16.500,31.765 C16.781,31.392 17.179,31.203 17.695,31.203 C18.209,31.203 18.655,31.392 19.031,31.765 L25.781,38.515 L45.047,19.812 L45.047,19.812 Z"/>
    </symbol>
    <symbol id="thumbs-up" viewBox="0 0 62 59">
        <g><g><path d="M61.305 30.484a5.031 5.031 0 0 1-.844 1.547c-.376.47-.798.844-1.266 1.125-.47.281-.984.516-1.547.703.282.47.515.963.703 1.477.187.516.282 1.103.282 1.758 0 .562-.095 1.125-.282 1.687a7.831 7.831 0 0 1-.703 1.547 9.417 9.417 0 0 1-1.265 1.055c-.47.33-.939.586-1.406.773.28.47.514.984.703 1.547.186.563.28 1.125.28 1.688 0 .656-.094 1.243-.28 1.757a8.6 8.6 0 0 1-.703 1.477 6.07 6.07 0 0 1-1.266 1.195c-.47.33-.985.54-1.547.633.374.47.655.962.844 1.476.187.517.281 1.104.281 1.758 0 .657-.14 1.314-.422 1.97a5.315 5.315 0 0 1-1.125 1.687 7.377 7.377 0 0 1-1.828 1.125 5.302 5.302 0 0 1-2.11.421H29.243c-.657 0-1.406-.092-2.25-.28a17.15 17.15 0 0 1-2.672-.844 22.741 22.741 0 0 1-2.812-1.055 74.919 74.919 0 0 0-2.813-1.196 201.903 201.903 0 0 1-3.304-1.406c-1.08-.468-1.853-.703-2.32-.703H.272V25.984l1.125-.14h10.97c.843 0 1.616-.093 2.32-.282.703-.186 1.428-.562 2.18-1.125.843-.468 1.803-1.125 2.882-1.968a286.424 286.424 0 0 0 3.867-3.094c2.905-2.437 4.617-5.485 5.133-9.14.514-3.657.773-5.766.773-6.329 0-.563.14-1.1.422-1.617a3.077 3.077 0 0 1 1.125-1.195c.468-.374.96-.633 1.477-.774a5.59 5.59 0 0 1 1.476-.21c.75 0 1.499.094 2.25.28.75.19 1.453.611 2.11 1.266.655.657 1.17 1.525 1.547 2.602.373 1.079.562 2.509.562 4.289 0 1.595-.119 3.118-.351 4.57a36.255 36.255 0 0 1-.915 4.149 23.073 23.073 0 0 1-1.054 3.585 220.38 220.38 0 0 0-1.055 2.743h19.125c.844 0 1.569.118 2.18.351A6.298 6.298 0 0 1 60.18 25c.468.47.82 1.008 1.054 1.617.233.61.352 1.29.352 2.039 0 .657-.095 1.266-.281 1.828zm-3.797.914c.373-.14.655-.351.843-.633a4.34 4.34 0 0 0 .704-.913c.186-.328.28-.726.28-1.196 0-.75-.28-1.406-.843-1.969-.562-.562-1.314-.843-2.25-.843h-8.437c0 .094 0 .094 0 0H33.32l.844-1.688c2.624-6.469 3.938-11.672 3.938-15.61 0-3.093-.517-4.897-1.547-5.413-1.033-.514-1.877-.774-2.532-.774-.28 0-.703.14-1.265.422-.563.281-.844.657-.844 1.125 0 .563-.048 1.5-.14 2.813-.095 1.314-.376 2.812-.844 4.5-.47 1.687-1.15 3.423-2.04 5.203-.891 1.782-2.133 3.329-3.726 4.64a3134.247 3134.247 0 0 0-4.008 3.305c-1.079.892-2.087 1.617-3.023 2.18-.939.562-1.877.984-2.813 1.265-.938.282-1.922.422-2.953.422H2.664v22.782H13.07c.655 0 1.523.21 2.602.632 1.077.422 2.412.963 4.008 1.617.749.376 1.569.774 2.46 1.196.89.422 1.758.773 2.602 1.054.936.282 1.78.541 2.531.774.75.235 1.407.352 1.97.352h18.562c.468 0 .89-.093 1.265-.282.374-.187.703-.422.985-.703.28-.187.492-.468.632-.844.141-.373.211-.749.211-1.125 0-.468-.07-.865-.21-1.195a2.93 2.93 0 0 0-.633-.914 2.747 2.747 0 0 0-.985-.633 3.586 3.586 0 0 0-1.265-.21h-.282v-2.391h3.235c.373 0 .749-.07 1.125-.211.373-.141.703-.352.984-.633.187-.281.374-.609.563-.984.186-.374.28-.75.28-1.125 0-.374-.094-.75-.28-1.125a9.721 9.721 0 0 0-.563-.985 9.702 9.702 0 0 0-.984-.562 2.515 2.515 0 0 0-1.125-.282h-.985v-2.39h3.516c.374 0 .75-.07 1.125-.211.374-.14.703-.352.984-.633.282-.281.515-.609.704-.984.186-.374.28-.75.28-1.125 0-.468-.094-.89-.28-1.266-.19-.374-.422-.655-.704-.844a3.814 3.814 0 0 0-.984-.703A2.515 2.515 0 0 0 53.289 34h-1.125v-2.39h4.078c.468 0 .89-.071 1.266-.212z"/></g></g>
    </symbol>
    <symbol id="dotted-arc" viewBox="0 0 300 50"><defs><clipPath id="vh0ga"><path d="M1 96s192.477-212.458 393.059 0c0 0 176.268-213.754 383.94 0"/></clipPath></defs><g><g opacity=".5"><path fill="none" stroke="#fff" stroke-dasharray="0 5" stroke-linecap="round" stroke-miterlimit="20" stroke-width="2" d="M1 96v0s192.477-212.458 393.059 0c0" clip-path="url(&quot;#vh0ga&quot;)"/></g></g></symbol>
</svg>